<svg viewBox="0 0 72 72" xmlns="http://www.w3.org/2000/svg"><g fill="none" stroke="#000" stroke-miterlimit="10" stroke-width="2"><circle cx="33.9688" cy="8.0938" r="3"/><g stroke-linecap="round" stroke-linejoin="round"><path d="m12.875 12 4.6963 4.6006c.7861.7695 2.3115 1.2231 3.3896 1.0073l6.0782-1.2158c1.0781-.2158 2.8584-.4609 3.955-.5454l9.0118-.6934c1.0966-.0845 2.8808.003 3.9638.1944l15.0303 2.6523"/><path d="m29 20s.4502.4502 1 1 1.1758 1.8823 1.3926 2.9609l1.2148 6.0782c.2168 1.0781.0381 2.788-.3945 3.7988l-4.4258 10.3242c-.4326 1.0108-.5019 2.6914-.1543 3.7354l2.7344 8.205c.3476 1.044 1.3076 1.8975 2.1328 1.8975s1.3389-.8857 1.1426-1.9678l-1.2852-7.0644c-.1963-1.0821.0801-2.7549.6133-3.7158l3.0576-5.504c.5342-.9609 1.4209-1.748 1.9717-1.748.5498 0 1 .9004 1 2v9c0 1.0996-.0342 2.8994-.0752 3.999l-.4492 12.002c-.041 1.0996.667 1.999 1.5752 1.999.9072 0 1.7705-.8916 1.918-1.9824l1.7626-13.0352c.1475-1.0908.3331-2.8799.4112-3.9775l.7148-10.0098c.0781-1.0976-.0136-2.8818-.2051-3.9648l-2.6523-15.0303"/></g></g></svg>